<mxfile host="app.diagrams.net" modified="2020-12-14T09:52:55.107Z" agent="5.0 (Windows)" etag="uPXyYPmjJCZ8hqzei02Q" version="14.0.0" type="github">
  <diagram name="Page-1" id="c37626ed-c26b-45fb-9056-f9ebc6bb27b6">
    <mxGraphModel dx="1422" dy="911" grid="1" gridSize="10" guides="1" tooltips="1" connect="1" arrows="1" fold="1" page="1" pageScale="1" pageWidth="1100" pageHeight="850" background="#ffffff" math="0" shadow="0">
      <root>
        <mxCell id="0" />
        <mxCell id="1" parent="0" />
        <mxCell id="MeqS2ozmaetx4hanfT82-11" style="edgeStyle=none;rounded=0;orthogonalLoop=1;jettySize=auto;html=1;exitX=1;exitY=0.5;exitDx=0;exitDy=0;exitPerimeter=0;entryX=0;entryY=0.5;entryDx=0;entryDy=0;entryPerimeter=0;" edge="1" parent="1" source="MeqS2ozmaetx4hanfT82-1" target="MeqS2ozmaetx4hanfT82-3">
          <mxGeometry relative="1" as="geometry" />
        </mxCell>
        <mxCell id="MeqS2ozmaetx4hanfT82-1" value="USG01" style="shape=mxgraph.cisco.routers.router;html=1;pointerEvents=1;dashed=0;fillColor=#036897;strokeColor=#ffffff;strokeWidth=2;verticalLabelPosition=bottom;verticalAlign=top;align=center;outlineConnect=0;" vertex="1" parent="1">
          <mxGeometry x="40" y="210" width="78" height="53" as="geometry" />
        </mxCell>
        <mxCell id="MeqS2ozmaetx4hanfT82-17" style="edgeStyle=none;rounded=0;orthogonalLoop=1;jettySize=auto;html=1;exitX=1;exitY=0;exitDx=0;exitDy=0;exitPerimeter=0;" edge="1" parent="1" source="MeqS2ozmaetx4hanfT82-2" target="MeqS2ozmaetx4hanfT82-7">
          <mxGeometry relative="1" as="geometry" />
        </mxCell>
        <mxCell id="MeqS2ozmaetx4hanfT82-25" style="edgeStyle=none;rounded=0;orthogonalLoop=1;jettySize=auto;html=1;exitX=0.98;exitY=0.5;exitDx=0;exitDy=0;exitPerimeter=0;" edge="1" parent="1" source="MeqS2ozmaetx4hanfT82-2" target="MeqS2ozmaetx4hanfT82-24">
          <mxGeometry relative="1" as="geometry" />
        </mxCell>
        <mxCell id="MeqS2ozmaetx4hanfT82-34" style="edgeStyle=none;rounded=0;orthogonalLoop=1;jettySize=auto;html=1;exitX=0.98;exitY=0.5;exitDx=0;exitDy=0;exitPerimeter=0;entryX=0;entryY=0.5;entryDx=0;entryDy=0;entryPerimeter=0;" edge="1" parent="1" source="MeqS2ozmaetx4hanfT82-2" target="MeqS2ozmaetx4hanfT82-33">
          <mxGeometry relative="1" as="geometry" />
        </mxCell>
        <mxCell id="MeqS2ozmaetx4hanfT82-2" value="" style="shape=mxgraph.cisco.switches.workgroup_switch;html=1;pointerEvents=1;dashed=0;fillColor=#036897;strokeColor=#ffffff;strokeWidth=2;verticalLabelPosition=bottom;verticalAlign=top;align=center;outlineConnect=0;" vertex="1" parent="1">
          <mxGeometry x="510" y="110" width="110" height="50" as="geometry" />
        </mxCell>
        <mxCell id="MeqS2ozmaetx4hanfT82-12" style="edgeStyle=none;rounded=0;orthogonalLoop=1;jettySize=auto;html=1;entryX=0;entryY=0.5;entryDx=0;entryDy=0;entryPerimeter=0;" edge="1" parent="1" source="MeqS2ozmaetx4hanfT82-5" target="MeqS2ozmaetx4hanfT82-5">
          <mxGeometry relative="1" as="geometry" />
        </mxCell>
        <mxCell id="MeqS2ozmaetx4hanfT82-13" style="edgeStyle=none;rounded=0;orthogonalLoop=1;jettySize=auto;html=1;exitX=1;exitY=0.5;exitDx=0;exitDy=0;exitPerimeter=0;entryX=0;entryY=0.5;entryDx=0;entryDy=0;entryPerimeter=0;" edge="1" parent="1" source="MeqS2ozmaetx4hanfT82-3" target="MeqS2ozmaetx4hanfT82-6">
          <mxGeometry relative="1" as="geometry" />
        </mxCell>
        <mxCell id="MeqS2ozmaetx4hanfT82-14" style="edgeStyle=none;rounded=0;orthogonalLoop=1;jettySize=auto;html=1;exitX=1;exitY=0.5;exitDx=0;exitDy=0;exitPerimeter=0;" edge="1" parent="1" source="MeqS2ozmaetx4hanfT82-3" target="MeqS2ozmaetx4hanfT82-5">
          <mxGeometry relative="1" as="geometry" />
        </mxCell>
        <mxCell id="MeqS2ozmaetx4hanfT82-15" style="edgeStyle=none;rounded=0;orthogonalLoop=1;jettySize=auto;html=1;exitX=1;exitY=0.5;exitDx=0;exitDy=0;exitPerimeter=0;" edge="1" parent="1" source="MeqS2ozmaetx4hanfT82-3" target="MeqS2ozmaetx4hanfT82-4">
          <mxGeometry relative="1" as="geometry" />
        </mxCell>
        <mxCell id="MeqS2ozmaetx4hanfT82-23" style="edgeStyle=none;rounded=0;orthogonalLoop=1;jettySize=auto;html=1;exitX=1;exitY=0.5;exitDx=0;exitDy=0;exitPerimeter=0;entryX=0;entryY=0.5;entryDx=0;entryDy=0;entryPerimeter=0;" edge="1" parent="1" source="MeqS2ozmaetx4hanfT82-3" target="MeqS2ozmaetx4hanfT82-22">
          <mxGeometry relative="1" as="geometry" />
        </mxCell>
        <mxCell id="MeqS2ozmaetx4hanfT82-3" value="PL MK" style="shape=mxgraph.cisco.controllers_and_modules.virtual_switch_controller_(vsc3000);html=1;pointerEvents=1;dashed=0;fillColor=#036897;strokeColor=#ffffff;strokeWidth=2;verticalLabelPosition=bottom;verticalAlign=top;align=center;outlineConnect=0;" vertex="1" parent="1">
          <mxGeometry x="160" y="160" width="46" height="93" as="geometry" />
        </mxCell>
        <mxCell id="MeqS2ozmaetx4hanfT82-29" style="edgeStyle=none;rounded=0;orthogonalLoop=1;jettySize=auto;html=1;exitX=1;exitY=0.5;exitDx=0;exitDy=0;exitPerimeter=0;entryX=0;entryY=0.5;entryDx=0;entryDy=0;entryPerimeter=0;" edge="1" parent="1" source="MeqS2ozmaetx4hanfT82-4" target="MeqS2ozmaetx4hanfT82-28">
          <mxGeometry relative="1" as="geometry" />
        </mxCell>
        <mxCell id="MeqS2ozmaetx4hanfT82-4" value="PF OF" style="shape=mxgraph.cisco.controllers_and_modules.virtual_switch_controller_(vsc3000);html=1;pointerEvents=1;dashed=0;fillColor=#036897;strokeColor=#ffffff;strokeWidth=2;verticalLabelPosition=bottom;verticalAlign=top;align=center;outlineConnect=0;" vertex="1" parent="1">
          <mxGeometry x="320" y="500" width="46" height="93" as="geometry" />
        </mxCell>
        <mxCell id="MeqS2ozmaetx4hanfT82-16" style="edgeStyle=none;rounded=0;orthogonalLoop=1;jettySize=auto;html=1;exitX=1;exitY=0.5;exitDx=0;exitDy=0;exitPerimeter=0;entryX=0;entryY=0.5;entryDx=0;entryDy=0;entryPerimeter=0;" edge="1" parent="1" source="MeqS2ozmaetx4hanfT82-5" target="MeqS2ozmaetx4hanfT82-2">
          <mxGeometry relative="1" as="geometry" />
        </mxCell>
        <mxCell id="MeqS2ozmaetx4hanfT82-5" value="PL WK" style="shape=mxgraph.cisco.controllers_and_modules.virtual_switch_controller_(vsc3000);html=1;pointerEvents=1;dashed=0;fillColor=#036897;strokeColor=#ffffff;strokeWidth=2;verticalLabelPosition=bottom;verticalAlign=top;align=center;outlineConnect=0;" vertex="1" parent="1">
          <mxGeometry x="320" y="160" width="46" height="93" as="geometry" />
        </mxCell>
        <mxCell id="MeqS2ozmaetx4hanfT82-18" style="edgeStyle=none;rounded=0;orthogonalLoop=1;jettySize=auto;html=1;exitX=1;exitY=0.5;exitDx=0;exitDy=0;exitPerimeter=0;" edge="1" parent="1" source="MeqS2ozmaetx4hanfT82-6" target="MeqS2ozmaetx4hanfT82-8">
          <mxGeometry relative="1" as="geometry" />
        </mxCell>
        <mxCell id="MeqS2ozmaetx4hanfT82-35" style="edgeStyle=none;rounded=0;orthogonalLoop=1;jettySize=auto;html=1;exitX=1;exitY=0.5;exitDx=0;exitDy=0;exitPerimeter=0;" edge="1" parent="1" source="MeqS2ozmaetx4hanfT82-6" target="MeqS2ozmaetx4hanfT82-32">
          <mxGeometry relative="1" as="geometry" />
        </mxCell>
        <mxCell id="MeqS2ozmaetx4hanfT82-6" value="PL ED" style="shape=mxgraph.cisco.controllers_and_modules.virtual_switch_controller_(vsc3000);html=1;pointerEvents=1;dashed=0;fillColor=#036897;strokeColor=#ffffff;strokeWidth=2;verticalLabelPosition=bottom;verticalAlign=top;align=center;outlineConnect=0;" vertex="1" parent="1">
          <mxGeometry x="320" y="330" width="46" height="93" as="geometry" />
        </mxCell>
        <mxCell id="MeqS2ozmaetx4hanfT82-7" value="HTPC" style="shape=mxgraph.cisco.computers_and_peripherals.pc;html=1;pointerEvents=1;dashed=0;fillColor=#036897;strokeColor=#ffffff;strokeWidth=2;verticalLabelPosition=bottom;verticalAlign=top;align=center;outlineConnect=0;" vertex="1" parent="1">
          <mxGeometry x="720" y="20" width="78" height="70" as="geometry" />
        </mxCell>
        <mxCell id="MeqS2ozmaetx4hanfT82-8" value="ED Laptop" style="shape=mxgraph.cisco.computers_and_peripherals.laptop;html=1;pointerEvents=1;dashed=0;fillColor=#036897;strokeColor=#ffffff;strokeWidth=2;verticalLabelPosition=bottom;verticalAlign=top;align=center;outlineConnect=0;" vertex="1" parent="1">
          <mxGeometry x="720" y="290" width="90" height="61" as="geometry" />
        </mxCell>
        <mxCell id="MeqS2ozmaetx4hanfT82-9" value="UNRAID01" style="shape=mxgraph.cisco.servers.fileserver;html=1;pointerEvents=1;dashed=0;fillColor=#036897;strokeColor=#ffffff;strokeWidth=2;verticalLabelPosition=bottom;verticalAlign=top;align=center;outlineConnect=0;" vertex="1" parent="1">
          <mxGeometry x="720" y="450" width="43" height="62" as="geometry" />
        </mxCell>
        <mxCell id="MeqS2ozmaetx4hanfT82-10" value="PC01" style="shape=mxgraph.cisco.computers_and_peripherals.pc;html=1;pointerEvents=1;dashed=0;fillColor=#036897;strokeColor=#ffffff;strokeWidth=2;verticalLabelPosition=bottom;verticalAlign=top;align=center;outlineConnect=0;" vertex="1" parent="1">
          <mxGeometry x="720" y="570" width="78" height="70" as="geometry" />
        </mxCell>
        <mxCell id="MeqS2ozmaetx4hanfT82-27" style="edgeStyle=none;rounded=0;orthogonalLoop=1;jettySize=auto;html=1;exitX=1;exitY=0.5;exitDx=0;exitDy=0;exitPerimeter=0;" edge="1" parent="1" source="MeqS2ozmaetx4hanfT82-22" target="MeqS2ozmaetx4hanfT82-26">
          <mxGeometry relative="1" as="geometry" />
        </mxCell>
        <mxCell id="MeqS2ozmaetx4hanfT82-22" value="PL JO" style="shape=mxgraph.cisco.controllers_and_modules.virtual_switch_controller_(vsc3000);html=1;pointerEvents=1;dashed=0;fillColor=#036897;strokeColor=#ffffff;strokeWidth=2;verticalLabelPosition=bottom;verticalAlign=top;align=center;outlineConnect=0;" vertex="1" parent="1">
          <mxGeometry x="320" y="660" width="46" height="93" as="geometry" />
        </mxCell>
        <mxCell id="MeqS2ozmaetx4hanfT82-24" value="Printer" style="shape=mxgraph.cisco.computers_and_peripherals.printer;html=1;pointerEvents=1;dashed=0;fillColor=#036897;strokeColor=#ffffff;strokeWidth=2;verticalLabelPosition=bottom;verticalAlign=top;align=center;outlineConnect=0;" vertex="1" parent="1">
          <mxGeometry x="720" y="198" width="91" height="34" as="geometry" />
        </mxCell>
        <mxCell id="MeqS2ozmaetx4hanfT82-26" value="Joep Laptop" style="shape=mxgraph.cisco.computers_and_peripherals.laptop;html=1;pointerEvents=1;dashed=0;fillColor=#036897;strokeColor=#ffffff;strokeWidth=2;verticalLabelPosition=bottom;verticalAlign=top;align=center;outlineConnect=0;" vertex="1" parent="1">
          <mxGeometry x="720" y="680" width="90" height="61" as="geometry" />
        </mxCell>
        <mxCell id="MeqS2ozmaetx4hanfT82-30" style="edgeStyle=none;rounded=0;orthogonalLoop=1;jettySize=auto;html=1;exitX=0.98;exitY=0.5;exitDx=0;exitDy=0;exitPerimeter=0;" edge="1" parent="1" source="MeqS2ozmaetx4hanfT82-28" target="MeqS2ozmaetx4hanfT82-9">
          <mxGeometry relative="1" as="geometry" />
        </mxCell>
        <mxCell id="MeqS2ozmaetx4hanfT82-31" style="edgeStyle=none;rounded=0;orthogonalLoop=1;jettySize=auto;html=1;exitX=0.98;exitY=0.5;exitDx=0;exitDy=0;exitPerimeter=0;" edge="1" parent="1" source="MeqS2ozmaetx4hanfT82-28" target="MeqS2ozmaetx4hanfT82-10">
          <mxGeometry relative="1" as="geometry" />
        </mxCell>
        <mxCell id="MeqS2ozmaetx4hanfT82-38" style="edgeStyle=none;rounded=0;orthogonalLoop=1;jettySize=auto;html=1;exitX=0.5;exitY=0.98;exitDx=0;exitDy=0;exitPerimeter=0;entryX=0.5;entryY=0;entryDx=0;entryDy=0;entryPerimeter=0;" edge="1" parent="1" source="MeqS2ozmaetx4hanfT82-28" target="MeqS2ozmaetx4hanfT82-36">
          <mxGeometry relative="1" as="geometry" />
        </mxCell>
        <mxCell id="MeqS2ozmaetx4hanfT82-28" value="" style="shape=mxgraph.cisco.switches.workgroup_switch;html=1;pointerEvents=1;dashed=0;fillColor=#036897;strokeColor=#ffffff;strokeWidth=2;verticalLabelPosition=bottom;verticalAlign=top;align=center;outlineConnect=0;" vertex="1" parent="1">
          <mxGeometry x="480" y="520" width="101" height="50" as="geometry" />
        </mxCell>
        <mxCell id="MeqS2ozmaetx4hanfT82-32" value="AP Lite" style="shape=mxgraph.cisco.wireless.wireless;html=1;pointerEvents=1;dashed=0;fillColor=#036897;strokeColor=#ffffff;strokeWidth=2;verticalLabelPosition=bottom;verticalAlign=top;align=center;outlineConnect=0;" vertex="1" parent="1">
          <mxGeometry x="600" y="360" width="37" height="67" as="geometry" />
        </mxCell>
        <mxCell id="MeqS2ozmaetx4hanfT82-33" value="AP Pro" style="shape=mxgraph.cisco.wireless.wireless;html=1;pointerEvents=1;dashed=0;fillColor=#036897;strokeColor=#ffffff;strokeWidth=2;verticalLabelPosition=bottom;verticalAlign=top;align=center;outlineConnect=0;" vertex="1" parent="1">
          <mxGeometry x="840" y="110" width="37" height="67" as="geometry" />
        </mxCell>
        <mxCell id="MeqS2ozmaetx4hanfT82-36" value="AP Pro" style="shape=mxgraph.cisco.wireless.wireless;html=1;pointerEvents=1;dashed=0;fillColor=#036897;strokeColor=#ffffff;strokeWidth=2;verticalLabelPosition=bottom;verticalAlign=top;align=center;outlineConnect=0;" vertex="1" parent="1">
          <mxGeometry x="470" y="613" width="37" height="67" as="geometry" />
        </mxCell>
        <mxCell id="MeqS2ozmaetx4hanfT82-37" style="edgeStyle=none;rounded=0;orthogonalLoop=1;jettySize=auto;html=1;exitX=1;exitY=0.5;exitDx=0;exitDy=0;exitPerimeter=0;" edge="1" parent="1" source="MeqS2ozmaetx4hanfT82-22" target="MeqS2ozmaetx4hanfT82-22">
          <mxGeometry relative="1" as="geometry" />
        </mxCell>
      </root>
    </mxGraphModel>
  </diagram>
</mxfile>
